  0
SECTION
  2
HEADER
  9
$ACADVER
  1
AC1003
  9
$EXTMIN
 10
1
 20
3.79916032277402
  9
$EXTMAX
 10
6.53534565197194
 20
0.992785096316256
  9
$INSUNITS
 70
1
  9
$INSBASE
 10
3.76767282598597
 20
2.39597270954514
999
Created with OMAX LAYOUT for Windows. (www.omax.com) 18-Jul-18
  0
ENDSEC
  0
SECTION
  2
TABLES
  0
TABLE
  2
LAYER
 70
    10
  0
LAYER
  2
0
 70
     0
 62
     7
  6
CONTINUOUS
  0
LAYER
  2
1
 70
     0
 62
     7
  6
CONTINUOUS
  0
LAYER
  2
2
 70
     0
 62
     7
  6
CONTINUOUS
  0
LAYER
  2
3
 70
     0
 62
     7
  6
CONTINUOUS
  0
LAYER
  2
4
 70
     0
 62
     7
  6
CONTINUOUS
  0
LAYER
  2
5
 70
     0
 62
     7
  6
CONTINUOUS
  0
LAYER
  2
6
 70
     0
 62
     7
  6
CONTINUOUS
  0
LAYER
  2
7
 70
     0
 62
     7
  6
CONTINUOUS
  0
LAYER
  2
8
 70
     0
 62
     7
  6
CONTINUOUS
  0
LAYER
  2
9
 70
     0
 62
     7
  6
CONTINUOUS
  0
LAYER
  2
10
 70
     0
 62
     7
  6
CONTINUOUS
  0
LAYER
  2
11
 70
     0
 62
     7
  6
CONTINUOUS
  0
LAYER
  2
12
 70
     0
 62
     7
  6
CONTINUOUS
  0
LAYER
  2
13
 70
     0
 62
     7
  6
CONTINUOUS
  0
LAYER
  2
14
 70
     0
 62
     7
  6
CONTINUOUS
  0
LAYER
  2
15
 70
     0
 62
     7
  6
CONTINUOUS
  0
LAYER
  2
16
 70
     0
 62
     7
  6
CONTINUOUS
  0
LAYER
  2
17
 70
     0
 62
     7
  6
CONTINUOUS
  0
LAYER
  2
18
 70
     0
 62
     7
  6
CONTINUOUS
  0
LAYER
  2
19
 70
     0
 62
     7
  6
CONTINUOUS
  0
LAYER
  2
20
 70
     0
 62
     7
  6
CONTINUOUS
  0
LAYER
  2
21
 70
     0
 62
     7
  6
CONTINUOUS
  0
LAYER
  2
22
 70
     0
 62
     7
  6
CONTINUOUS
  0
LAYER
  2
23
 70
     0
 62
     7
  6
CONTINUOUS
  0
LAYER
  2
24
 70
     0
 62
     7
  6
CONTINUOUS
  0
LAYER
  2
25
 70
     0
 62
     7
  6
CONTINUOUS
  0
LAYER
  2
26
 70
     0
 62
     7
  6
CONTINUOUS
  0
LAYER
  2
27
 70
     0
 62
     7
  6
CONTINUOUS
  0
LAYER
  2
28
 70
     0
 62
     7
  6
CONTINUOUS
  0
LAYER
  2
29
 70
     0
 62
     7
  6
CONTINUOUS
  0
LAYER
  2
30
 70
     0
 62
     7
  6
CONTINUOUS
  0
LAYER
  2
31
 70
     0
 62
     7
  6
CONTINUOUS
  0
ENDTAB
  0
ENDSEC
  0
SECTION
  2
ENTITIES
  0
ARC
  8
0
  6
CONTINUOUS
 62
0
 10
1.81692913385827
 20
3.13582677165354
 30
0.0
 40
0.0856299212598426
 50
179.999999999999
 51
359.999999999999
  0
ARC
  8
0
  6
CONTINUOUS
 62
0
 10
1.81692913385827
 20
3.13582677165354
 30
0.0
 40
0.0856299212598426
 50
359.999999999999
 51
180
  0
ARC
  8
0
  6
CONTINUOUS
 62
0
 10
1.44291338582677
 20
3.13582677165354
 30
0.0
 40
0.0856299212598425
 50
179.999999999999
 51
359.999999999999
  0
ARC
  8
0
  6
CONTINUOUS
 62
0
 10
1.44291338582677
 20
3.13582677165354
 30
0.0
 40
0.0856299212598425
 50
359.999999999999
 51
180
  0
ARC
  8
0
  6
CONTINUOUS
 62
0
 10
1.81692913385827
 20
1.2263779527559
 30
0.0
 40
0.0856299212598421
 50
179.999999999999
 51
359.999999999999
  0
ARC
  8
0
  6
CONTINUOUS
 62
0
 10
1.81692913385827
 20
1.22637795275591
 30
0.0
 40
0.0856299212598421
 50
359.999999999999
 51
180
  0
ARC
  8
0
  6
CONTINUOUS
 62
0
 10
1.44291338582677
 20
1.2263779527559
 30
0.0
 40
0.0856299212598421
 50
179.999999999999
 51
359.999999999999
  0
ARC
  8
0
  6
CONTINUOUS
 62
0
 10
1.44291338582677
 20
1.22637795275591
 30
0.0
 40
0.0856299212598421
 50
359.999999999999
 51
180
  0
LINE
  8
0
  6
CONTINUOUS
 62
0
 10
1.6003937007874
 20
1.3740157480315
 30
0.0
 11
1.6003937007874
 21
1.07874015748031
 31
0.0
  0
LINE
  8
0
  6
CONTINUOUS
 62
0
 10
1.65944881889764
 20
1.3740157480315
 30
0.0
 11
1.65944881889764
 21
1.07874015748031
 31
0.0
  0
LINE
  8
0
  6
CONTINUOUS
 62
0
 10
1.65944881889764
 20
1.3740157480315
 30
0.0
 11
2.02362204724409
 21
1.3740157480315
 31
0.0
  0
LINE
  8
0
  6
CONTINUOUS
 62
0
 10
1
 20
1
 30
0.0
 11
2.02362204724409
 21
1
 31
0.0
  0
LINE
  8
0
  6
CONTINUOUS
 62
0
 10
1
 20
3.36220472440945
 30
0.0
 11
1
 21
1
 31
0.0
  0
LINE
  8
0
  6
CONTINUOUS
 62
0
 10
2.02362204724409
 20
3.36220472440945
 30
0.0
 11
1
 21
3.36220472440945
 31
0.0
  0
LINE
  8
0
  6
CONTINUOUS
 62
0
 10
2.02362204724409
 20
2.98818897637795
 30
0.0
 11
2.02362204724409
 21
3.36220472440945
 31
0.0
  0
LINE
  8
0
  6
CONTINUOUS
 62
0
 10
1.65944881889764
 20
2.98818897637795
 30
0.0
 11
2.02362204724409
 21
2.98818897637795
 31
0.0
  0
LINE
  8
0
  6
CONTINUOUS
 62
0
 10
1.65944881889764
 20
2.98818897637795
 30
0.0
 11
1.65944881889764
 21
3.28346456692913
 31
0.0
  0
LINE
  8
0
  6
CONTINUOUS
 62
0
 10
1.6003937007874
 20
3.28346456692913
 30
0.0
 11
1.65944881889764
 21
3.28346456692913
 31
0.0
  0
LINE
  8
0
  6
CONTINUOUS
 62
0
 10
1.6003937007874
 20
3.28346456692913
 30
0.0
 11
1.6003937007874
 21
2.98818897637795
 31
0.0
  0
LINE
  8
0
  6
CONTINUOUS
 62
0
 10
1.11811023622047
 20
2.98818897637795
 30
0.0
 11
1.6003937007874
 21
2.98818897637795
 31
0.0
  0
LINE
  8
0
  6
CONTINUOUS
 62
0
 10
1.11811023622047
 20
2.98818897637795
 30
0.0
 11
1.11811023622047
 21
1.3740157480315
 31
0.0
  0
LINE
  8
0
  6
CONTINUOUS
 62
0
 10
1.11811023622047
 20
1.3740157480315
 30
0.0
 11
1.6003937007874
 21
1.3740157480315
 31
0.0
  0
LINE
  8
0
  6
CONTINUOUS
 62
0
 10
1.6003937007874
 20
1.07874015748031
 30
0.0
 11
1.65944881889764
 21
1.07874015748031
 31
0.0
  0
LINE
  8
0
  6
CONTINUOUS
 62
0
 10
2.02362204724409
 20
1
 30
0.0
 11
2.02362204724409
 21
1.3740157480315
 31
0.0
  0
ARC
  8
0
  6
CONTINUOUS
 62
0
 10
1.36800960233376
 20
1.66319285391385
 30
0.0
 40
0.0856299212598401
 50
359.999999999999
 51
180
  0
ARC
  8
0
  6
CONTINUOUS
 62
0
 10
1.36800960233376
 20
1.66319285391384
 30
0.0
 40
0.0856299212598401
 50
179.999999999999
 51
359.999999999999
  0
ARC
  8
0
  6
CONTINUOUS
 62
0
 10
1.74202535036526
 20
1.66319285391385
 30
0.0
 40
0.08562992125984
 50
359.999999999999
 51
180
  0
ARC
  8
0
  6
CONTINUOUS
 62
0
 10
1.74202535036526
 20
1.66319285391384
 30
0.0
 40
0.08562992125984
 50
179.999999999999
 51
359.999999999999
  0
ARC
  8
0
  6
CONTINUOUS
 62
0
 10
1.36800960233376
 20
3.57264167281148
 30
0.0
 40
0.0856299212598401
 50
359.999999999999
 51
180
  0
ARC
  8
0
  6
CONTINUOUS
 62
0
 10
1.36800960233376
 20
3.57264167281147
 30
0.0
 40
0.0856299212598401
 50
179.999999999999
 51
359.999999999999
  0
ARC
  8
0
  6
CONTINUOUS
 62
0
 10
1.74202535036526
 20
3.57264167281148
 30
0.0
 40
0.0856299212598398
 50
359.999999999999
 51
180
  0
ARC
  8
0
  6
CONTINUOUS
 62
0
 10
1.74202535036526
 20
3.57264167281147
 30
0.0
 40
0.0856299212598398
 50
179.999999999999
 51
359.999999999999
  0
LINE
  8
0
  6
CONTINUOUS
 62
0
 10
1.58454503540463
 20
3.42500387753588
 30
0.0
 11
1.58454503540463
 21
3.72027946808707
 31
0.0
  0
LINE
  8
0
  6
CONTINUOUS
 62
0
 10
1.52548991729439
 20
3.42500387753588
 30
0.0
 11
1.52548991729439
 21
3.72027946808707
 31
0.0
  0
LINE
  8
0
  6
CONTINUOUS
 62
0
 10
1.52548991729439
 20
3.42500387753588
 30
0.0
 11
1.16131668894794
 21
3.42500387753588
 31
0.0
  0
LINE
  8
0
  6
CONTINUOUS
 62
0
 10
2.18493873619203
 20
3.79901962556738
 30
0.0
 11
1.16131668894794
 21
3.79901962556738
 31
0.0
  0
LINE
  8
0
  6
CONTINUOUS
 62
0
 10
2.18493873619203
 20
1.43681490115793
 30
0.0
 11
2.18493873619203
 21
3.79901962556738
 31
0.0
  0
LINE
  8
0
  6
CONTINUOUS
 62
0
 10
1.16131668894794
 20
1.43681490115793
 30
0.0
 11
2.18493873619203
 21
1.43681490115793
 31
0.0
  0
LINE
  8
0
  6
CONTINUOUS
 62
0
 10
1.16131668894794
 20
1.81083064918943
 30
0.0
 11
1.16131668894794
 21
1.43681490115793
 31
0.0
  0
LINE
  8
0
  6
CONTINUOUS
 62
0
 10
1.52548991729439
 20
1.81083064918943
 30
0.0
 11
1.16131668894794
 21
1.81083064918943
 31
0.0
  0
LINE
  8
0
  6
CONTINUOUS
 62
0
 10
1.52548991729439
 20
1.81083064918943
 30
0.0
 11
1.52548991729439
 21
1.51555505863825
 31
0.0
  0
LINE
  8
0
  6
CONTINUOUS
 62
0
 10
1.58454503540463
 20
1.51555505863825
 30
0.0
 11
1.52548991729439
 21
1.51555505863825
 31
0.0
  0
LINE
  8
0
  6
CONTINUOUS
 62
0
 10
1.58454503540463
 20
1.51555505863825
 30
0.0
 11
1.58454503540463
 21
1.81083064918943
 31
0.0
  0
LINE
  8
0
  6
CONTINUOUS
 62
0
 10
2.06682849997156
 20
1.81083064918943
 30
0.0
 11
1.58454503540463
 21
1.81083064918943
 31
0.0
  0
LINE
  8
0
  6
CONTINUOUS
 62
0
 10
2.06682849997156
 20
1.81083064918943
 30
0.0
 11
2.06682849997156
 21
3.42500387753588
 31
0.0
  0
LINE
  8
0
  6
CONTINUOUS
 62
0
 10
2.06682849997156
 20
3.42500387753588
 30
0.0
 11
1.58454503540463
 21
3.42500387753588
 31
0.0
  0
LINE
  8
0
  6
CONTINUOUS
 62
0
 10
1.58454503540463
 20
3.72027946808707
 30
0.0
 11
1.52548991729439
 21
3.72027946808707
 31
0.0
  0
LINE
  8
0
  6
CONTINUOUS
 62
0
 10
1.16131668894794
 20
3.79901962556738
 30
0.0
 11
1.16131668894794
 21
3.42500387753588
 31
0.0
  0
ARC
  8
0
  6
CONTINUOUS
 62
0
 10
3.06246914938827
 20
3.13596746886017
 30
0.0
 40
0.0856299212598401
 50
179.999999999999
 51
359.999999999999
  0
ARC
  8
0
  6
CONTINUOUS
 62
0
 10
3.06246914938827
 20
3.13596746886018
 30
0.0
 40
0.0856299212598401
 50
359.999999999999
 51
180
  0
ARC
  8
0
  6
CONTINUOUS
 62
0
 10
2.68845340135677
 20
3.13596746886017
 30
0.0
 40
0.0856299212598399
 50
179.999999999999
 51
359.999999999999
  0
ARC
  8
0
  6
CONTINUOUS
 62
0
 10
2.68845340135677
 20
3.13596746886018
 30
0.0
 40
0.0856299212598399
 50
359.999999999999
 51
180
  0
ARC
  8
0
  6
CONTINUOUS
 62
0
 10
3.06246914938827
 20
1.22651864996254
 30
0.0
 40
0.0856299212598401
 50
179.999999999999
 51
359.999999999999
  0
ARC
  8
0
  6
CONTINUOUS
 62
0
 10
3.06246914938827
 20
1.22651864996255
 30
0.0
 40
0.0856299212598401
 50
359.999999999999
 51
180
  0
ARC
  8
0
  6
CONTINUOUS
 62
0
 10
2.68845340135677
 20
1.22651864996254
 30
0.0
 40
0.0856299212598399
 50
179.999999999999
 51
359.999999999999
  0
ARC
  8
0
  6
CONTINUOUS
 62
0
 10
2.68845340135677
 20
1.22651864996255
 30
0.0
 40
0.0856299212598399
 50
359.999999999999
 51
180
  0
LINE
  8
0
  6
CONTINUOUS
 62
0
 10
2.8459337163174
 20
1.37415644523814
 30
0.0
 11
2.8459337163174
 21
1.07888085468695
 31
0.0
  0
LINE
  8
0
  6
CONTINUOUS
 62
0
 10
2.90498883442764
 20
1.37415644523814
 30
0.0
 11
2.90498883442764
 21
1.07888085468695
 31
0.0
  0
LINE
  8
0
  6
CONTINUOUS
 62
0
 10
2.90498883442764
 20
1.37415644523814
 30
0.0
 11
3.26916206277409
 21
1.37415644523814
 31
0.0
  0
LINE
  8
0
  6
CONTINUOUS
 62
0
 10
2.24554001553
 20
1.00014069720664
 30
0.0
 11
3.26916206277409
 21
1.00014069720664
 31
0.0
  0
LINE
  8
0
  6
CONTINUOUS
 62
0
 10
2.24554001553
 20
3.36234542161609
 30
0.0
 11
2.24554001553
 21
1.00014069720664
 31
0.0
  0
LINE
  8
0
  6
CONTINUOUS
 62
0
 10
3.26916206277409
 20
3.36234542161609
 30
0.0
 11
2.24554001553
 21
3.36234542161609
 31
0.0
  0
LINE
  8
0
  6
CONTINUOUS
 62
0
 10
3.26916206277409
 20
2.98832967358459
 30
0.0
 11
3.26916206277409
 21
3.36234542161609
 31
0.0
  0
LINE
  8
0
  6
CONTINUOUS
 62
0
 10
2.90498883442764
 20
2.98832967358459
 30
0.0
 11
3.26916206277409
 21
2.98832967358459
 31
0.0
  0
LINE
  8
0
  6
CONTINUOUS
 62
0
 10
2.90498883442764
 20
2.98832967358459
 30
0.0
 11
2.90498883442764
 21
3.28360526413577
 31
0.0
  0
LINE
  8
0
  6
CONTINUOUS
 62
0
 10
2.8459337163174
 20
3.28360526413577
 30
0.0
 11
2.90498883442764
 21
3.28360526413577
 31
0.0
  0
LINE
  8
0
  6
CONTINUOUS
 62
0
 10
2.8459337163174
 20
3.28360526413577
 30
0.0
 11
2.8459337163174
 21
2.98832967358459
 31
0.0
  0
LINE
  8
0
  6
CONTINUOUS
 62
0
 10
2.36365025175047
 20
2.98832967358459
 30
0.0
 11
2.8459337163174
 21
2.98832967358459
 31
0.0
  0
LINE
  8
0
  6
CONTINUOUS
 62
0
 10
2.36365025175047
 20
2.98832967358459
 30
0.0
 11
2.36365025175047
 21
1.37415644523814
 31
0.0
  0
LINE
  8
0
  6
CONTINUOUS
 62
0
 10
2.36365025175047
 20
1.37415644523814
 30
0.0
 11
2.8459337163174
 21
1.37415644523814
 31
0.0
  0
LINE
  8
0
  6
CONTINUOUS
 62
0
 10
2.8459337163174
 20
1.07888085468695
 30
0.0
 11
2.90498883442764
 21
1.07888085468695
 31
0.0
  0
LINE
  8
0
  6
CONTINUOUS
 62
0
 10
3.26916206277409
 20
1.00014069720664
 30
0.0
 11
3.26916206277409
 21
1.37415644523814
 31
0.0
  0
ARC
  8
0
  6
CONTINUOUS
 62
0
 10
2.61354961786376
 20
1.66333355112048
 30
0.0
 40
0.0856299212598399
 50
359.999999999999
 51
180
  0
ARC
  8
0
  6
CONTINUOUS
 62
0
 10
2.61354961786376
 20
1.66333355112047
 30
0.0
 40
0.0856299212598399
 50
179.999999999999
 51
359.999999999999
  0
ARC
  8
0
  6
CONTINUOUS
 62
0
 10
2.98756536589526
 20
1.66333355112048
 30
0.0
 40
0.0856299212598401
 50
359.999999999999
 51
180
  0
ARC
  8
0
  6
CONTINUOUS
 62
0
 10
2.98756536589526
 20
1.66333355112047
 30
0.0
 40
0.0856299212598401
 50
179.999999999999
 51
359.999999999999
  0
ARC
  8
0
  6
CONTINUOUS
 62
0
 10
2.61354961786376
 20
3.57278237001811
 30
0.0
 40
0.0856299212598399
 50
359.999999999999
 51
180
  0
ARC
  8
0
  6
CONTINUOUS
 62
0
 10
2.61354961786376
 20
3.57278237001811
 30
0.0
 40
0.0856299212598399
 50
179.999999999999
 51
359.999999999999
  0
ARC
  8
0
  6
CONTINUOUS
 62
0
 10
2.98756536589526
 20
3.57278237001811
 30
0.0
 40
0.0856299212598401
 50
359.999999999999
 51
180
  0
ARC
  8
0
  6
CONTINUOUS
 62
0
 10
2.98756536589526
 20
3.57278237001811
 30
0.0
 40
0.0856299212598401
 50
179.999999999999
 51
359.999999999999
  0
LINE
  8
0
  6
CONTINUOUS
 62
0
 10
2.83008505093463
 20
3.42514457474252
 30
0.0
 11
2.83008505093463
 21
3.72042016529371
 31
0.0
  0
LINE
  8
0
  6
CONTINUOUS
 62
0
 10
2.77102993282439
 20
3.42514457474252
 30
0.0
 11
2.77102993282439
 21
3.72042016529371
 31
0.0
  0
LINE
  8
0
  6
CONTINUOUS
 62
0
 10
2.77102993282439
 20
3.42514457474252
 30
0.0
 11
2.40685670447794
 21
3.42514457474252
 31
0.0
  0
LINE
  8
0
  6
CONTINUOUS
 62
0
 10
3.43047875172203
 20
3.79916032277402
 30
0.0
 11
2.40685670447794
 21
3.79916032277402
 31
0.0
  0
LINE
  8
0
  6
CONTINUOUS
 62
0
 10
3.43047875172203
 20
1.43695559836457
 30
0.0
 11
3.43047875172203
 21
3.79916032277402
 31
0.0
  0
LINE
  8
0
  6
CONTINUOUS
 62
0
 10
2.40685670447794
 20
1.43695559836457
 30
0.0
 11
3.43047875172203
 21
1.43695559836457
 31
0.0
  0
LINE
  8
0
  6
CONTINUOUS
 62
0
 10
2.40685670447794
 20
1.81097134639607
 30
0.0
 11
2.40685670447794
 21
1.43695559836457
 31
0.0
  0
LINE
  8
0
  6
CONTINUOUS
 62
0
 10
2.77102993282439
 20
1.81097134639607
 30
0.0
 11
2.40685670447794
 21
1.81097134639607
 31
0.0
  0
LINE
  8
0
  6
CONTINUOUS
 62
0
 10
2.77102993282439
 20
1.81097134639607
 30
0.0
 11
2.77102993282439
 21
1.51569575584489
 31
0.0
  0
LINE
  8
0
  6
CONTINUOUS
 62
0
 10
2.83008505093463
 20
1.51569575584489
 30
0.0
 11
2.77102993282439
 21
1.51569575584489
 31
0.0
  0
LINE
  8
0
  6
CONTINUOUS
 62
0
 10
2.83008505093463
 20
1.51569575584489
 30
0.0
 11
2.83008505093463
 21
1.81097134639607
 31
0.0
  0
LINE
  8
0
  6
CONTINUOUS
 62
0
 10
3.31236851550156
 20
1.81097134639607
 30
0.0
 11
2.83008505093463
 21
1.81097134639607
 31
0.0
  0
LINE
  8
0
  6
CONTINUOUS
 62
0
 10
3.31236851550156
 20
1.81097134639607
 30
0.0
 11
3.31236851550156
 21
3.42514457474252
 31
0.0
  0
LINE
  8
0
  6
CONTINUOUS
 62
0
 10
3.31236851550156
 20
3.42514457474252
 30
0.0
 11
2.83008505093463
 21
3.42514457474252
 31
0.0
  0
LINE
  8
0
  6
CONTINUOUS
 62
0
 10
2.83008505093463
 20
3.72042016529371
 30
0.0
 11
2.77102993282439
 21
3.72042016529371
 31
0.0
  0
LINE
  8
0
  6
CONTINUOUS
 62
0
 10
2.40685670447794
 20
3.79916032277402
 30
0.0
 11
2.40685670447794
 21
3.42514457474252
 31
0.0
  0
ARC
  8
7
  6
CONTINUOUS
 62
7
 10
3.9713323743919
 20
1.16052125081563
 30
0.0
 40
0.0787401579999987
 50
90
 51
270
  0
ARC
  8
7
  6
CONTINUOUS
 62
7
 10
3.9713323743919
 20
1.16052125081563
 30
0.0
 40
0.0787401579999987
 50
270
 51
90
  0
ARC
  8
7
  6
CONTINUOUS
 62
7
 10
3.97133237439189
 20
2.14477322581562
 30
0.0
 40
0.0787401579999987
 50
90
 51
270
  0
ARC
  8
7
  6
CONTINUOUS
 62
7
 10
3.97133237439189
 20
2.14477322581562
 30
0.0
 40
0.0787401579999987
 50
270
 51
90
  0
LINE
  8
7
  6
CONTINUOUS
 62
7
 10
4.20755284839189
 20
2.30225354181563
 30
0.0
 11
4.20755284839189
 21
1.97449763414062
 31
0.0
  0
LINE
  8
7
  6
CONTINUOUS
 62
7
 10
3.6532221360719
 20
1.97449763414062
 30
0.0
 11
3.6532221360719
 21
1.33079684249063
 31
0.0
  0
LINE
  8
7
  6
CONTINUOUS
 62
7
 10
3.6532221360719
 20
1.33079684249063
 30
0.0
 11
4.2075528483919
 21
1.33079684249063
 31
0.0
  0
LINE
  8
7
  6
CONTINUOUS
 62
7
 10
4.2075528483919
 20
1.33079684249063
 30
0.0
 11
4.2075528483919
 21
1.00304093481562
 31
0.0
  0
LINE
  8
7
  6
CONTINUOUS
 62
7
 10
4.20755284839189
 20
1.97449763414062
 30
0.0
 11
3.6532221360719
 21
1.97449763414062
 31
0.0
  0
LINE
  8
7
  6
CONTINUOUS
 62
7
 10
3.5351118990719
 20
1.00304093481562
 30
0.0
 11
3.5351118990719
 21
2.30225354181563
 31
0.0
  0
LINE
  8
7
  6
CONTINUOUS
 62
7
 10
4.2075528483919
 20
1.00304093481562
 30
0.0
 11
3.5351118990719
 21
1.00304093481562
 31
0.0
  0
LINE
  8
7
  6
CONTINUOUS
 62
7
 10
3.5351118990719
 20
2.30225354181563
 30
0.0
 11
4.20755284839189
 21
2.30225354181563
 31
0.0
  0
ARC
  8
7
  6
CONTINUOUS
 62
7
 10
3.96812546652004
 20
2.53505635135115
 30
0.0
 40
0.0787401579999949
 50
270
 51
90
  0
ARC
  8
7
  6
CONTINUOUS
 62
7
 10
3.96812546652004
 20
2.53505635135115
 30
0.0
 40
0.0787401579999949
 50
90
 51
270
  0
ARC
  8
7
  6
CONTINUOUS
 62
7
 10
3.96812546652005
 20
1.55080437635115
 30
0.0
 40
0.0787401579999949
 50
270
 51
90
  0
ARC
  8
7
  6
CONTINUOUS
 62
7
 10
3.96812546652005
 20
1.55080437635115
 30
0.0
 40
0.0787401579999949
 50
90
 51
270
  0
LINE
  8
7
  6
CONTINUOUS
 62
7
 10
3.73190499252005
 20
1.39332406035115
 30
0.0
 11
3.73190499252005
 21
1.72107996802616
 31
0.0
  0
LINE
  8
7
  6
CONTINUOUS
 62
7
 10
4.28623570484004
 20
1.72107996802616
 30
0.0
 11
4.28623570484004
 21
2.36478075967615
 31
0.0
  0
LINE
  8
7
  6
CONTINUOUS
 62
7
 10
4.28623570484004
 20
2.36478075967615
 30
0.0
 11
3.73190499252004
 21
2.36478075967615
 31
0.0
  0
LINE
  8
7
  6
CONTINUOUS
 62
7
 10
3.73190499252004
 20
2.36478075967615
 30
0.0
 11
3.73190499252004
 21
2.69253666735116
 31
0.0
  0
LINE
  8
7
  6
CONTINUOUS
 62
7
 10
3.73190499252005
 20
1.72107996802616
 30
0.0
 11
4.28623570484004
 21
1.72107996802616
 31
0.0
  0
LINE
  8
7
  6
CONTINUOUS
 62
7
 10
4.40434594184004
 20
2.69253666735116
 30
0.0
 11
4.40434594184004
 21
1.39332406035115
 31
0.0
  0
LINE
  8
7
  6
CONTINUOUS
 62
7
 10
3.73190499252004
 20
2.69253666735116
 30
0.0
 11
4.40434594184004
 21
2.69253666735116
 31
0.0
  0
LINE
  8
7
  6
CONTINUOUS
 62
7
 10
4.40434594184004
 20
1.39332406035115
 30
0.0
 11
3.73190499252005
 21
1.39332406035115
 31
0.0
  0
ARC
  8
7
  6
CONTINUOUS
 62
7
 10
5.309033141794
 20
1.48491108381626
 30
0.0
 40
0.0787401579999987
 50
270
 51
90
  0
ARC
  8
7
  6
CONTINUOUS
 62
7
 10
5.309033141794
 20
1.48491108381626
 30
0.0
 40
0.0787401579999987
 50
90
 51
270
  0
ARC
  8
7
  6
CONTINUOUS
 62
7
 10
5.309033141794
 20
2.46916305881625
 30
0.0
 40
0.0787401579999987
 50
270
 51
90
  0
ARC
  8
7
  6
CONTINUOUS
 62
7
 10
5.309033141794
 20
2.46916305881625
 30
0.0
 40
0.0787401579999987
 50
90
 51
270
  0
LINE
  8
7
  6
CONTINUOUS
 62
7
 10
5.016907155614
 20
2.10203707214126
 30
0.0
 11
5.509033143114
 21
2.10203707214126
 31
0.0
  0
LINE
  8
7
  6
CONTINUOUS
 62
7
 10
5.016907155614
 20
1.85203707049125
 30
0.0
 11
5.016907155614
 21
2.10203707214126
 31
0.0
  0
LINE
  8
7
  6
CONTINUOUS
 62
7
 10
5.509033143114
 20
1.85203707049125
 30
0.0
 11
5.016907155614
 21
1.85203707049125
 31
0.0
  0
LINE
  8
7
  6
CONTINUOUS
 62
7
 10
5.509033143114
 20
0.992785096316256
 30
0.0
 11
5.509033143114
 21
1.85203707049125
 31
0.0
  0
LINE
  8
7
  6
CONTINUOUS
 62
7
 10
5.509033143114
 20
2.10203707214126
 30
0.0
 11
5.509033143114
 21
2.96128904631625
 31
0.0
  0
ARC
  8
7
  6
CONTINUOUS
 62
7
 10
5.50903314311399
 20
1.97703707131626
 30
0.0
 40
0.984251974999999
 50
89.9999999999992
 51
269.999999999999
  0
ARC
  8
7
  6
CONTINUOUS
 62
7
 10
5.95906344639276
 20
2.47864920563474
 30
0.0
 40
0.0787401579999987
 50
90
 51
270
  0
ARC
  8
7
  6
CONTINUOUS
 62
7
 10
5.95906344639276
 20
2.47864920563474
 30
0.0
 40
0.0787401579999987
 50
270
 51
90
  0
ARC
  8
7
  6
CONTINUOUS
 62
7
 10
5.95906344639276
 20
1.49439723063474
 30
0.0
 40
0.0787401579999987
 50
90
 51
270
  0
ARC
  8
7
  6
CONTINUOUS
 62
7
 10
5.95906344639276
 20
1.49439723063474
 30
0.0
 40
0.0787401579999987
 50
270
 51
90
  0
LINE
  8
7
  6
CONTINUOUS
 62
7
 10
6.53534565197182
 20
1.86152321730974
 30
0.0
 11
6.04321966447182
 21
1.86152321730974
 31
0.0
  0
LINE
  8
7
  6
CONTINUOUS
 62
7
 10
6.53534565197182
 20
2.11152321895974
 30
0.0
 11
6.04321966447182
 21
2.11152321895974
 31
0.0
  0
LINE
  8
7
  6
CONTINUOUS
 62
7
 10
6.04321966447182
 20
2.11152321895974
 30
0.0
 11
6.04321966447182
 21
1.86152321730974
 31
0.0
  0
LINE
  8
7
  6
CONTINUOUS
 62
7
 10
5.55906344375276
 20
2.97077519313474
 30
0.0
 11
5.55906344375276
 21
1.00227124313474
 31
0.0
  0
ARC
  8
7
  6
CONTINUOUS
 62
7
 10
5.55906344375276
 20
1.98652321813474
 30
0.0
 40
0.984251974999996
 50
7.29626796499988
 51
89.9999999999998
  0
ARC
  8
7
  6
CONTINUOUS
 62
7
 10
5.55906344375277
 20
1.98652321813474
 30
0.0
 40
0.984251974999996
 50
269.999999999999
 51
352.703732034999
  0
ENDSEC
  0
EOF
